<svg xmlns="http://www.w3.org/2000/svg" width="323" height="59" version="1.1" viewBox="0 0 323 59"><g id="Page-1" fill="none" fill-rule="evenodd" stroke="none" stroke-width="1"><g id="logo-dark" fill="#FFF"><path id="ttc" d="m107.298 0-3.861 9.734-2.083-.827 2.644-6.666H41.419l4.91 13.39H38.48l7.365 15.175H4.2l12.111 18.067h39.925l.376.522.159.2.278.327.286.316.227.24.256.26.285.276.314.292.342.304.371.314c2.376 1.958 6.372 4.313 11.842 4.313h65.696v2.241H70.972c-6.024 0-10.4-2.474-13.081-4.642l-.399-.331-.372-.324c-.06-.053-.119-.106-.176-.159l-.332-.309-.447-.439-.265-.273-.237-.255-.306-.343-.244-.289H15.115L0 28.565h42.266L34.901 13.39h8.219L38.211 0h69.087Zm36.81 27.639-9.293 5.29c-3.805-3.577-6.414-4.005-8.841-1.512-2.197 2.256-2.13 6.91.13 9.146 2.362 2.334 5.114 1.82 8.722-1.728l9.318 5.29c-2.884 6.597-10.561 10.183-18.541 8.805-7.968-1.375-13.918-8.037-14.24-15.943-.344-8.453 4.554-15.335 12.504-17.57 8.404-2.36 16.102.663 20.24 8.222ZM61.47 11.326l13.564-.014.008 8.02 7.49-.006.012 10.419-7.265.008v1.016l-.019 3.874a124.6 124.6 0 0 0 .056 4.585c.062 1.81 1.327 2.603 3.027 2.548a19.688 19.688 0 0 0 2.083-.2l1.652-.239c.19-.026.384-.052.58-.077l.007 1.077.023 2.15c.018 1.79.02 3.573-.097 5.349-.05.739-.907 1.8-1.63 2.058-4.03 1.44-8.181 1.703-12.323.455-4.546-1.37-6.88-4.835-7.054-10.471-.117-3.788-.1-7.58-.15-11.368a.166.166 0 0 0-.011-.057l-.037-.077-.158-.291a8.419 8.419 0 0 1-.06-.116l-3.383-.303-.01-9.992 3.703-.443-.008-7.905Zm27.15.01 13.535-.014.008 7.97 7.564-.007.011 10.57-7.452.008-.003 1.074-.033 3.142c-.016 1.717-.01 3.395.093 5.066.127 2.034 1.675 2.764 3.587 2.625.471-.034.94-.093 1.434-.167l2.005-.32.453-.069.005 1.12.021 2.225c.016 1.846.016 3.674-.095 5.495-.04.654-.95 1.572-1.656 1.82-4.042 1.425-8.196 1.688-12.34.46-4.294-1.27-6.653-4.504-6.91-9.38a62.976 62.976 0 0 1-.075-3.191l.003-2.13v-1.065l-.005-1.056-.004-3.215v-2.224l-3.682-.459-.01-9.977 3.553-.416-.008-7.886ZM48.25 33.694l6.686 11.938H18.646L10.05 33.694h38.201Z"/><path id="riders" d="m213.536 8.631 13.571-.014.044 43.288-13.467.014-.176-2.89c-.468.24-.929.495-1.385.756l-1.359.786c-1.352.78-2.697 1.505-4.135 1.87-6.37 1.618-12.594-1.788-15.312-8.209-2.509-5.926-2.407-11.945.42-17.75 3.99-8.19 13.056-10.286 20.306-4.884l.332.252.247.171.928.608-.014-13.998Zm103.148 11.34c.837.241 1.652.562 2.513.926l1.805.775c.319.135.647.272.989.41l-4.278 8.071c-.35-.11-.699-.23-1.046-.355l-.692-.255-.69-.264-1.375-.531-.688-.257c-2.521-.92-5.063-1.57-7.827-.746l-.232 1.043c1.134.461 2.246.985 3.405 1.37.66.22 1.326.425 1.993.625l2.004.597c1.334.402 2.66.822 3.948 1.337 3.89 1.553 6.105 4.41 6.046 8.754-.062 4.5-1.941 8.047-6.192 9.666-8.721 3.32-16.911 1.408-25.023-3.018l4.583-7.664.75.326 1.866.816.743.317.371.155.743.3c3.095 1.216 6.21 2.002 9.591 1.14l.3-.997-.457-.225-.91-.464a11.021 11.021 0 0 0-1.395-.603 74.992 74.992 0 0 0-2.005-.64l-2.017-.61c-1.68-.507-3.353-1.03-4.969-1.695-3.532-1.452-5.623-4.109-5.7-8.12-.081-4.273 1.527-7.642 5.374-9.618 6.023-3.094 12.268-2.352 18.472-.566Zm-65.81-1.112c9.315 1.786 14.411 9.255 13.325 20l-20.522.02c1.29 5.165 6.218 5.59 12.585 1.142l2.7 2.106.69.54c1.165.918 2.324 1.843 3.474 2.756-3.393 6.6-14.164 9.353-22.81 5.884-7.91-3.172-11.839-11.954-9.3-20.783 2.432-8.46 10.833-13.394 19.857-11.665Zm40.273.088.014 13.995-.63.123-.602.123-.855.186-.539.126-.514.128-.49.131-.236.067-.455.137-.433.142c-.07.024-.14.048-.208.073l-.4.15a11.35 11.35 0 0 0-.56.237l-.347.168c-1.97 1-2.928 2.412-3.367 4.842l-.07.427c-.012.073-.022.147-.032.221l-.056.458a20.99 20.99 0 0 0-.025.237l-.043.49-.02.255-.03.525-.025.548-.018.573-.012.598-.008.945.007 7.135-13.608.013-.033-32.481 13.485-.014.274 5.605c2.335-4.188 5.214-6.508 9.836-6.163Zm-118.331.658 13.376-.014.032 32.374-13.375.013-.033-32.373Zm-2.874-.517.014 13.934c-.145.087-.299.261-.452.26-6.96-.057-9.524 3.738-9.567 10.523-.005.887-.007 1.774-.006 2.667l.011 5.474-13.42.014-.033-32.395 13.26-.013.004 4.97.387-.472.391-.46c.131-.151.263-.3.396-.447l.402-.431c2.23-2.33 4.797-3.912 8.613-3.623Zm38.452 10.716c-3.148.002-5.538 2.674-5.462 6.105.075 3.334 2.417 5.704 5.58 5.644 3.132-.058 5.347-2.518 5.314-5.898-.032-3.327-2.377-5.853-5.432-5.851Zm39.025-1.815c-2.323-.026-3.793 1.64-4.064 4.75l8.191-.007c-.275-3.086-1.749-4.718-4.127-4.743ZM172.617 8.657l13.876-.014.008 8.244-13.876.014-.008-8.245Z"/></g></g></svg>